<svg  viewBox="0 0 90 87" fill="none" xmlns="http://www.w3.org/2000/svg">
<path d="M21.9852 11.5711C22.343 10.9468 22.9322 10.4912 23.6235 10.3042C24.3147 10.1173 25.0514 10.2144 25.6716 10.5742L32.4864 14.5363L32.7132 14.6813L67.4424 34.8726L67.4496 34.8581L69.7896 36.2174C72.108 37.5696 75.618 39.8714 78.0696 42.8621C79.3044 44.3701 80.388 46.1934 80.8128 48.2814C81.252 50.4419 80.9496 52.7148 79.6788 54.9297C79.061 56.0075 78.2383 56.9522 77.2579 57.7099C76.2774 58.4676 75.1584 59.0233 73.9646 59.3455C72.7708 59.6676 71.5257 59.7498 70.3004 59.5874C69.0751 59.425 67.8935 59.0211 66.8232 58.3988C65.0138 57.3862 63.5921 55.7939 62.784 53.8748L51.984 72.7176C51.452 73.6452 50.7437 74.4582 49.8996 75.1102C49.0555 75.7622 48.0921 76.2403 47.0645 76.5174C46.0369 76.7944 44.9651 76.8649 43.9104 76.7248C42.8557 76.5847 41.8388 76.2368 40.9176 75.7009L13.0536 59.5008C11.1934 58.4195 9.83595 56.6385 9.27966 54.5495C8.72338 52.4605 9.01386 50.2346 10.0872 48.3612L27.5328 17.9329L22.9716 15.2831C22.3523 14.9222 21.9005 14.3286 21.7156 13.6326C21.5306 12.9366 21.6276 12.1951 21.9852 11.5711ZM15.3252 50.0976L61.434 37.6602L32.202 20.6626L15.3252 50.0976ZM16.7112 55.3538L43.6176 70.9921C44.2374 71.3521 44.9737 71.4498 45.6649 71.2636C46.3561 71.0773 46.9457 70.6224 47.304 69.9988L62.838 42.9092L16.7112 55.3538ZM67.5504 48.0386C67.32 49.4402 67.3572 50.5918 67.662 51.4932C67.9356 52.3233 68.4648 53.0737 69.5232 53.6899C69.9794 53.9552 70.483 54.1274 71.0053 54.1966C71.5276 54.2658 72.0583 54.2308 72.5671 54.0934C73.0759 53.9561 73.5529 53.7191 73.9707 53.3961C74.3886 53.0731 74.7392 52.6704 75.0024 52.2109C75.6144 51.1452 75.6972 50.2281 75.5244 49.3726C75.3336 48.4446 74.8008 47.4151 73.9044 46.3239C72.702 44.8594 71.064 43.5254 69.462 42.4271C68.6196 44.1852 67.8636 46.1644 67.5504 48.0386Z" fill="#394DA8"/>
</svg>
