<svg viewBox="16 16 79 79" fill="none" xmlns="http://www.w3.org/2000/svg">
  <path fill-rule="evenodd" clip-rule="evenodd" d="M76.3134 83.6242C76.307 83.9662 76.2333 84.3035 76.0964 84.6169C75.9594 84.9303 75.762 85.2135 75.5155 85.4505C75.2689 85.6875 74.978 85.8735 74.6594 85.9979C74.3408 86.1223 74.0009 86.1826 73.659 86.1754L35.4077 85.42C34.7184 85.4062 34.0628 85.1193 33.5851 84.6222C33.1073 84.1251 32.8466 83.4586 32.8602 82.7693L33.6358 43.6836L33.8667 31.8571C33.8868 30.8326 34.1084 29.822 34.5191 28.8832C34.9298 27.9444 35.5215 27.0957 36.2603 26.3856C36.9992 25.6755 37.8707 25.118 38.8251 24.7449C39.7794 24.3717 40.798 24.1903 41.8225 24.211L69.6846 24.7675C71.7512 24.8098 73.7165 25.6707 75.1488 27.161C76.5811 28.6513 77.3633 30.6492 77.3236 32.7158L77.0924 44.5496L76.3134 83.6242ZM71.1667 80.9257L71.839 47.0455L38.7823 46.3896L38.11 80.2697L71.1667 80.9257ZM38.8892 41.1878L71.9387 41.8362L72.129 32.6164C72.1362 32.2745 72.0759 31.9345 71.9515 31.6159C71.8271 31.2973 71.6411 31.0064 71.4041 30.7599C71.1672 30.5133 70.8839 30.3159 70.5705 30.179C70.2571 30.0421 69.9198 29.9683 69.5778 29.962L41.7156 29.4128C41.0276 29.4002 40.3626 29.6609 39.8665 30.1377C39.3703 30.6146 39.0834 31.2687 39.0687 31.9567L38.8892 41.1878Z" fill="#394DA8"/>
</svg>
