<svg viewBox="0 0 74 74" fill="none" xmlns="http://www.w3.org/2000/svg">
<path d="M55.5 24.6667C55.5 26.3022 54.8503 27.8707 53.6938 29.0272C52.5373 30.1836 50.9688 30.8333 49.3333 30.8333C47.6978 30.8333 46.1293 30.1836 44.9728 29.0272C43.8163 27.8707 43.1666 26.3022 43.1666 24.6667C43.1666 23.0312 43.8163 21.4626 44.9728 20.3062C46.1293 19.1497 47.6978 18.5 49.3333 18.5C50.9688 18.5 52.5373 19.1497 53.6938 20.3062C54.8503 21.4626 55.5 23.0312 55.5 24.6667Z" fill="#394DA8"/>
<path fill-rule="evenodd" clip-rule="evenodd" d="M36.8242 3.85416H37.1757C44.2951 3.85416 49.8729 3.85416 54.2265 4.43999C58.6789 5.03816 62.1939 6.28999 64.9535 9.04649C67.713 11.8061 68.9618 15.3211 69.56 19.7765C70.1458 24.1271 70.1458 29.7048 70.1458 36.8242V37.0956C70.1458 42.9817 70.1458 47.7978 69.8251 51.7198C69.5045 55.6665 68.8477 58.9564 67.3739 61.6944C66.7284 62.899 65.9216 63.9853 64.9535 64.9535C62.1939 67.7131 58.6789 68.9618 54.2235 69.56C49.8729 70.1458 44.2951 70.1458 37.1757 70.1458H36.8242C29.7048 70.1458 24.127 70.1458 19.7734 69.56C15.321 68.9618 11.806 67.71 9.04646 64.9535C6.60138 62.5084 5.33721 59.4652 4.66813 55.685C4.00521 51.9757 3.88496 47.36 3.86029 41.6312C3.85618 40.1717 3.85413 38.628 3.85413 37V36.8212C3.85413 29.7017 3.85413 24.124 4.43996 19.7703C5.03813 15.318 6.28996 11.803 9.04646 9.04341C11.806 6.28382 15.321 5.03507 19.7765 4.43691C24.127 3.85107 29.7048 3.85107 36.8242 3.85107M20.39 9.01874C16.4495 9.54907 14.0723 10.5604 12.3179 12.3148C10.5604 14.0723 9.55213 16.4465 9.02179 20.3901C8.48529 24.3984 8.47913 29.6647 8.47913 36.9969V39.5992L11.5655 36.8982C12.9193 35.7132 14.673 35.087 16.4712 35.1465C18.2695 35.2061 19.9778 35.9469 21.2503 37.2189L34.4778 50.4464C35.5043 51.4727 36.8598 52.1039 38.3059 52.2292C39.752 52.3544 41.1959 51.9655 42.3835 51.1309L43.3023 50.4834C45.0156 49.2795 47.0868 48.6925 49.1771 48.8185C51.2673 48.9446 53.253 49.7761 54.8093 51.1772L63.5351 59.0304C64.417 57.1866 64.938 54.7631 65.2155 51.3437C65.5177 47.6282 65.5208 42.9971 65.5208 36.9969C65.5208 29.6647 65.5146 24.3984 64.9781 20.3901C64.4478 16.4465 63.4365 14.0692 61.682 12.3117C59.9245 10.5573 57.5504 9.54907 53.6068 9.01874C49.5985 8.48224 44.3321 8.47607 37 8.47607C29.6678 8.47607 24.3984 8.48224 20.39 9.01874Z" fill="#394DA8"/>
</svg>
