<svg width="90" height="90" viewBox="0 0 90 90" fill="none" xmlns="http://www.w3.org/2000/svg">
<path d="M47.2665 64.5265V40.5155C47.2665 39.7195 46.9503 38.9561 46.3874 38.3932C45.8245 37.8304 45.0611 37.5142 44.2651 37.5142H32.2596C31.4636 37.5142 30.7002 37.8304 30.1373 38.3932C29.5745 38.9561 29.2582 39.7195 29.2582 40.5155V64.5265" stroke="#394DA8" stroke-width="5" stroke-linecap="round" stroke-linejoin="round"/>
<path d="M11.25 31.5114C11.2498 30.6382 11.4401 29.7755 11.8076 28.9834C12.1751 28.1913 12.7111 27.4889 13.378 26.9253L34.3876 8.92004C35.471 8.00435 36.8438 7.50195 38.2624 7.50195C39.6809 7.50195 41.0537 8.00435 42.1371 8.92004L63.1468 26.9253C63.8137 27.4889 64.3496 28.1913 64.7171 28.9834C65.0846 29.7755 65.2749 30.6382 65.2747 31.5114V58.5237C65.2747 60.1158 64.6423 61.6426 63.5166 62.7683C62.3908 63.8941 60.864 64.5265 59.272 64.5265H17.2527C15.6607 64.5265 14.1339 63.8941 13.0082 62.7683C11.8824 61.6426 11.25 60.1158 11.25 58.5237V31.5114Z" stroke="#394DA8" stroke-width="5" stroke-linecap="round" stroke-linejoin="round"/>
</svg>
