<svg width="85" height="85" viewBox="0 0 85 85" fill="none" xmlns="http://www.w3.org/2000/svg">
<path d="M42.5 77.9167C22.9394 77.9167 7.08333 62.0606 7.08333 42.5C7.08333 22.9394 22.9394 7.08333 42.5 7.08333C62.0606 7.08333 77.9167 22.9394 77.9167 42.5C77.9167 62.0606 62.0606 77.9167 42.5 77.9167ZM42.5 70.8333C50.0145 70.8333 57.2212 67.8482 62.5347 62.5347C67.8482 57.2212 70.8333 50.0145 70.8333 42.5C70.8333 34.9855 67.8482 27.7788 62.5347 22.4653C57.2212 17.1518 50.0145 14.1667 42.5 14.1667C34.9855 14.1667 27.7788 17.1518 22.4653 22.4653C17.1518 27.7788 14.1667 34.9855 14.1667 42.5C14.1667 50.0145 17.1518 57.2212 22.4653 62.5347C27.7788 67.8482 34.9855 70.8333 42.5 70.8333ZM42.5 35.4167C43.4393 35.4167 44.3401 35.7898 45.0043 36.454C45.6685 37.1182 46.0417 38.019 46.0417 38.9583V56.6667C46.0417 57.606 45.6685 58.5068 45.0043 59.171C44.3401 59.8352 43.4393 60.2083 42.5 60.2083C41.5607 60.2083 40.6599 59.8352 39.9957 59.171C39.3315 58.5068 38.9583 57.606 38.9583 56.6667V38.9583C38.9583 38.019 39.3315 37.1182 39.9957 36.454C40.6599 35.7898 41.5607 35.4167 42.5 35.4167ZM42.5 31.875C41.5607 31.875 40.6599 31.5019 39.9957 30.8377C39.3315 30.1735 38.9583 29.2726 38.9583 28.3333C38.9583 27.394 39.3315 26.4932 39.9957 25.829C40.6599 25.1648 41.5607 24.7917 42.5 24.7917C43.4393 24.7917 44.3401 25.1648 45.0043 25.829C45.6685 26.4932 46.0417 27.394 46.0417 28.3333C46.0417 29.2726 45.6685 30.1735 45.0043 30.8377C44.3401 31.5019 43.4393 31.875 42.5 31.875Z" fill="#394DA8"/>
</svg>
