<svg viewBox="0 0 78 78" fill="none" xmlns="http://www.w3.org/2000/svg">
<rect stroke="#394DA8"/>
<path d="M19.5 71.5V44.5055C19.5 39.4193 19.5 36.8745 20.1988 34.476C20.8943 32.0742 22.2462 29.9585 24.96 25.7237L33.592 12.2363C36.036 8.40775 37.2612 6.5 39 6.5C40.7388 6.5 41.964 8.411 44.408 12.233L53.04 25.7237C55.7505 29.9585 57.1025 32.0742 57.8012 34.476C58.5 36.8745 58.5 39.416 58.5 44.5055V71.5" stroke="#394DA8" stroke-width="5" stroke-linecap="round" stroke-linejoin="round"/>
<path d="M22.75 35.75C24.804 36.7998 27.5892 38.9122 30.16 39C33.4717 39.104 35.7077 36.1953 39 36.1953C42.2923 36.1953 44.5283 39.104 47.84 38.9967C50.4108 38.9122 53.1993 36.7998 55.25 35.75M39 39V71.5M32.5 16.25H45.5" stroke="#394DA8" stroke-width="5" stroke-linecap="round" stroke-linejoin="round"/>
</svg>
