<svg width="44" height="70" viewBox="0 0 44 70" fill="none" xmlns="http://www.w3.org/2000/svg">
<path id="Union" fill-rule="evenodd" clip-rule="evenodd" d="M21.4487 5.57096C20.7689 6.3543 19.9646 7.59928 18.6992 9.58145L18.6977 9.58389L18.5914 9.75H25.4107L25.3022 9.5804L25.3018 9.57982C24.0359 7.60023 23.2317 6.35581 22.5513 5.57177C22.2785 5.25739 22.0999 5.10534 21.9996 5.03509C21.8995 5.10524 21.7211 5.25705 21.4487 5.57096ZM28.6084 14.7477C28.5725 14.7492 28.5363 14.75 28.5 14.75H15.5C15.4641 14.75 15.4284 14.7492 15.3928 14.7477L10.0657 23.0714L10.0649 23.0726C8.13924 26.0776 7.01645 27.8531 6.31769 29.3147C6.51134 29.36 6.70266 29.4293 6.88772 29.5239C7.46752 29.8202 8.08045 30.1807 8.64356 30.5118L8.64364 30.5119L8.68012 30.5333C9.27814 30.885 9.84876 31.2201 10.425 31.5231C11.6252 32.1544 12.5459 32.4767 13.242 32.5013C14.157 32.5291 14.9908 32.163 16.4412 31.4148L16.6309 31.3167C17.9108 30.6533 19.7594 29.6952 22 29.6952C24.2397 29.6952 26.0879 30.6526 27.3674 31.3154L27.5583 31.4141C29.0101 32.1626 29.8436 32.5277 30.7591 32.4981C31.4543 32.4749 32.3756 32.1536 33.5771 31.5223C34.1531 31.2196 34.7237 30.8847 35.3211 30.5334L35.3648 30.5077L35.365 30.5076C35.9255 30.1779 36.535 29.8194 37.1109 29.5246C37.2957 29.43 37.4869 29.3606 37.6804 29.3151C36.9803 27.8524 35.8576 26.0762 33.9344 23.0715L33.9342 23.0712L28.6084 14.7477ZM38.8936 34.2421C38.5849 34.4148 38.2441 34.6149 37.8559 34.8432L37.8433 34.8506C37.2637 35.1915 36.5967 35.5838 35.9029 35.9484C34.5554 36.6565 32.7975 37.4338 30.9221 37.4954L30.9209 37.4954C28.5851 37.5711 26.6824 36.5889 25.3679 35.9103L25.2671 35.8583C24.9907 35.7158 24.7366 35.5861 24.5 35.4693V65H39V40.5055C39 37.6541 38.9932 35.7262 38.8936 34.2421ZM22 70H41.5C42.8807 70 44 68.8807 44 67.5V40.5055L44 40.1122C44.0006 35.3985 44.001 32.5211 43.2015 29.7767C42.3993 27.0203 40.8597 24.6153 38.3378 20.6763L38.1458 20.3763L38.1456 20.376L29.5142 6.88618L29.5138 6.8856L29.4248 6.74642L29.4248 6.74634C28.2838 4.96176 27.2808 3.39309 26.3277 2.29473C25.3281 1.14276 23.9558 0 22 0C20.0452 0 18.673 1.14066 17.6723 2.29392C16.7149 3.39713 15.7081 4.97458 14.5612 6.7713L14.5612 6.77133L14.5612 6.77135L14.4856 6.8898L14.4848 6.89105L5.85511 20.3749L5.85491 20.3752L5.67377 20.6578L5.67375 20.6578C3.1426 24.6068 1.59836 27.0161 0.79797 29.7787C-0.000986814 32.5225 -0.00062418 35.4027 -3.12328e-05 40.1124L1.43051e-06 40.5055V67.5C1.43051e-06 68.8807 1.11929 70 2.5 70H22ZM19.5 65V35.4695C19.2635 35.5863 19.0096 35.716 18.7334 35.8584L18.6314 35.9111C17.3174 36.5898 15.4158 37.5721 13.0815 37.4988L13.0747 37.4985C11.2004 37.4346 9.44413 36.6567 8.09743 35.9483C7.40747 35.5854 6.74355 35.195 6.16609 34.8554L6.14554 34.8433C5.75692 34.6148 5.41571 34.4145 5.10647 34.2417C5.00684 35.7266 5 37.6549 5 40.5055V65H19.5ZM22.1004 4.98018C22.1001 4.98202 22.0884 4.9882 22.0666 4.99317C22.0899 4.98082 22.1008 4.97833 22.1004 4.98018ZM21.9325 4.99302C21.9108 4.98804 21.8993 4.98191 21.8989 4.98009C21.8985 4.97827 21.9094 4.98076 21.9325 4.99302Z" fill="#394DA8"/>
</svg>
