<svg  viewBox="0 0 78 78" fill="none" xmlns="http://www.w3.org/2000/svg">
<path d="M32.175 61.75C26.9208 61.75 22.4109 60.0437 18.6453 56.6312C14.8796 53.2187 12.9978 48.9667 13 43.875C13.0022 38.7833 14.885 34.5312 18.6485 31.1187C22.412 27.7062 26.9208 26 32.175 26H52.65L44.2 17.55L48.75 13L65 29.25L48.75 45.5L44.2 40.95L52.65 32.5H32.175C28.7625 32.5 25.7963 33.5833 23.2765 35.75C20.7567 37.9167 19.4978 40.625 19.5 43.875C19.5022 47.125 20.7621 49.8333 23.2798 52C25.7974 54.1667 28.7625 55.25 32.175 55.25H55.25V61.75H32.175Z" fill="#394DA8"/>
</svg>
