<svg viewBox="0 0 78 78" fill="none" xmlns="http://www.w3.org/2000/svg">
<path d="M22.75 61.75V55.25H45.825C49.2375 55.25 52.2037 54.1667 54.7235 52C57.2433 49.8333 58.5022 47.125 58.5 43.875C58.4978 40.625 57.239 37.9167 54.7235 35.75C52.208 33.5833 49.2418 32.5 45.825 32.5H25.35L33.8 40.95L29.25 45.5L13 29.25L29.25 13L33.8 17.55L25.35 26H45.825C51.0792 26 55.5891 27.7062 59.3548 31.1187C63.1204 34.5312 65.0022 38.7833 65 43.875C64.9978 48.9667 63.1161 53.2187 59.3548 56.6312C55.5934 60.0437 51.0835 61.75 45.825 61.75H22.75Z" fill="#394DA8"/>
</svg>
